<svg width="350" height="90px" xmlns="http://www.w3.org/2000/svg" viewBox="10 1 350 100" style="background: rgba(0, 0, 0, 0);" preserveAspectRatio="xMidYMid"><defs><linearGradient id="editing-gradient-gradient" x1="0" x2="1" y1="0.5" y2="0.5" gradientUnits="objectBoundingBox"><stop offset="0" stop-color="#f0f"></stop><stop offset="1" stop-color="#0ff"></stop></linearGradient></defs><g><g transform="translate(0, 80)"><path d="M4.03 0L3.65-41.41L9.92-41.73L9.22-0.19L4.03 0ZM42.24-0.06L36.80 0.32L37.06-12.61L37.06-12.61Q37.06-25.79 33.34-25.79L33.34-25.79L33.34-25.79Q30.72-25.79 27.71-23.01L27.71-23.01L27.71-23.01Q24.70-20.22 23.62-16.06L23.62-16.06L23.62-16.06Q22.91-13.38 22.91-6.40L22.91-6.40L23.17-0.06L17.47 0.32L17.47 0.32Q17.60-15.36 17.60-19.01L17.60-19.01L17.22-29.95L21.70-30.34L23.17-24L23.42-24L23.42-24Q23.68-24.26 24.10-24.74L24.10-24.74L24.10-24.74Q24.51-25.22 25.82-26.37L25.82-26.37L25.82-26.37Q27.14-27.52 28.42-28.42L28.42-28.42L28.42-28.42Q31.94-30.78 34.91-30.78L34.91-30.78L34.91-30.78Q37.89-30.78 39.42-28.99L39.42-28.99L39.42-28.99Q40.96-27.20 41.73-23.87L41.73-23.87L42.05-23.74L42.05-23.74Q47.68-30.78 54.78-30.78L54.78-30.78L54.78-30.78Q57.92-30.78 59.52-27.90L59.52-27.90L59.52-27.90Q61.12-25.02 61.12-20.10L61.12-20.10L61.12-13.70L61.12-13.70Q61.12-3.14 61.31 0.13L61.31 0.13L55.74 0.51L55.74 0.51Q56-11.78 56-17.66L56-17.66L56-17.66Q56-25.28 52.61-25.28L52.61-25.28L52.61-25.28Q49.22-25.28 45.79-21.38L45.79-21.38L45.79-21.38Q42.37-17.47 42.37-13.82L42.37-13.82L42.24-0.06ZM75.97 0.51L75.97 0.51Q71.81 0.51 69.15-1.95L69.15-1.95L69.15-1.95Q66.50-4.42 66.50-8.58L66.50-8.58L66.50-8.58Q66.50-12.74 69.50-15.36L69.50-15.36L69.50-15.36Q72.51-17.98 76.61-17.98L76.61-17.98L76.61-17.98Q80.70-17.98 83.58-15.36L83.58-15.36L83.58-17.79L83.58-17.79Q83.58-21.76 82.02-23.97L82.02-23.97L82.02-23.97Q80.45-26.18 78.14-26.18L78.14-26.18L78.14-26.18Q75.84-26.18 74.14-25.12L74.14-25.12L74.14-25.12Q72.45-24.06 70.59-21.89L70.59-21.89L67.71-25.15L67.71-25.15Q72.06-30.78 78.66-30.78L78.66-30.78L78.66-30.78Q89.02-30.78 89.02-19.07L89.02-19.07L89.02-19.07Q89.02-7.36 89.09 0.06L89.09 0.06L84.54 0.06L84.35-2.75L84.16-2.88L84.16-2.88Q83.26-1.60 80.86-0.54L80.86-0.54L80.86-0.54Q78.46 0.51 75.97 0.51L75.97 0.51ZM83.65-8.96L83.65-8.96L83.65-8.96Q83.58-11.26 81.73-12.54L81.73-12.54L81.73-12.54Q79.87-13.82 77.25-13.82L77.25-13.82L77.25-13.82Q74.62-13.82 73.15-12.35L73.15-12.35L73.15-12.35Q71.68-10.88 71.68-8.83L71.68-8.83L71.68-8.83Q71.68-6.78 73.18-5.28L73.18-5.28L73.18-5.28Q74.69-3.78 77.31-3.78L77.31-3.78L77.31-3.78Q79.94-3.78 81.76-5.09L81.76-5.09L81.76-5.09Q83.58-6.40 83.65-8.96ZM93.38-16.51L93.38-16.51Q93.38-22.78 96.61-26.91L96.61-26.91L96.61-26.91Q99.84-31.04 105.76-31.04L105.76-31.04L105.76-31.04Q111.68-31.04 114.56-27.46L114.56-27.46L115.14-27.65L115.84-31.36L119.94-30.98L119.94-30.98Q120.13-19.20 120.13-6.78L120.13-6.78L120.13-6.78Q120.13 0.38 117.82 6.40L117.82 6.40L117.82 6.40Q116.61 9.66 114.11 11.68L114.11 11.68L114.11 11.68Q111.62 13.70 107.78 13.70L107.78 13.70L107.78 13.70Q103.94 13.70 100.67 12.35L100.67 12.35L100.67 12.35Q97.41 11.01 94.59 7.10L94.59 7.10L99.07 3.39L99.07 3.39Q100.67 5.70 103.30 7.20L103.30 7.20L103.30 7.20Q105.92 8.70 108.42 8.70L108.42 8.70L108.42 8.70Q110.91 8.70 112.32 6.40L112.32 6.40L112.32 6.40Q114.75 2.50 114.75-4.54L114.75-4.54L114.75-4.54Q114.75-6.34 114.56-7.49L114.56-7.49L114.56-7.49Q110.72-2.24 105.60-2.24L105.60-2.24L105.60-2.24Q101.31-2.24 98.43-4.42L98.43-4.42L98.43-4.42Q95.55-6.59 94.46-9.66L94.46-9.66L94.46-9.66Q93.38-12.74 93.38-16.51L93.38-16.51ZM105.92-7.42L105.92-7.42L105.92-7.42Q109.70-7.42 112.22-10.56L112.22-10.56L112.22-10.56Q114.75-13.70 114.75-17.44L114.75-17.44L114.75-17.44Q114.75-21.18 112.22-23.74L112.22-23.74L112.22-23.74Q109.70-26.30 106.46-26.30L106.46-26.30L106.46-26.30Q103.23-26.30 100.99-23.39L100.99-23.39L100.99-23.39Q98.75-20.48 98.75-16.74L98.75-16.74L98.75-16.74Q98.75-12.99 100.45-10.21L100.45-10.21L100.45-10.21Q102.14-7.42 105.92-7.42ZM150.53-13.06L150.53-13.06L131.65-12.93L131.65-12.93Q131.65-8.83 133.95-6.37L133.95-6.37L133.95-6.37Q136.26-3.90 139.14-3.90L139.14-3.90L139.14-3.90Q142.02-3.90 144.10-4.83L144.10-4.83L144.10-4.83Q146.18-5.76 147.07-6.66L147.07-6.66L147.90-7.62L150.53-4.16L150.53-4.16Q146.82 0.32 139.01 0.32L139.01 0.32L139.01 0.32Q132.74 0.32 129.47-3.46L129.47-3.46L129.47-3.46Q126.21-7.23 126.21-13.86L126.21-13.86L126.21-13.86Q126.21-20.48 130.34-25.50L130.34-25.50L130.34-25.50Q134.46-30.53 140.93-30.53L140.93-30.53L140.93-30.53Q146.11-30.53 148.51-26.98L148.51-26.98L148.51-26.98Q150.91-23.42 150.91-17.73L150.91-17.73L150.91-17.73Q150.91-15.36 150.53-13.06ZM145.92-16.70L145.92-16.70Q145.92-21.31 144.54-23.68L144.54-23.68L144.54-23.68Q143.17-26.05 139.68-26.05L139.68-26.05L139.68-26.05Q136.19-26.05 133.92-23.01L133.92-23.01L133.92-23.01Q131.65-19.97 131.58-16.58L131.58-16.58L145.92-16.70ZM157.18-8.51L157.18-8.51L157.18-8.51Q158.98-6.66 161.95-5.41L161.95-5.41L161.95-5.41Q164.93-4.16 167.49-4.16L167.49-4.16L167.49-4.16Q170.05-4.16 171.42-5.44L171.42-5.44L171.42-5.44Q172.80-6.72 172.80-8.29L172.80-8.29L172.80-8.29Q172.80-9.86 171.01-10.66L171.01-10.66L171.01-10.66Q169.22-11.46 166.69-11.94L166.69-11.94L166.69-11.94Q164.16-12.42 161.63-13.18L161.63-13.18L161.63-13.18Q159.10-13.95 157.31-15.81L157.31-15.81L157.31-15.81Q155.52-17.66 155.52-20.67L155.52-20.67L155.52-20.67Q155.52-25.28 158.69-28.03L158.69-28.03L158.69-28.03Q161.86-30.78 166.27-30.78L166.27-30.78L166.27-30.78Q172.99-30.78 177.66-27.01L177.66-27.01L175.30-22.72L175.30-22.72Q173.76-24.06 170.94-25.15L170.94-25.15L170.94-25.15Q168.13-26.24 165.63-26.24L165.63-26.24L165.63-26.24Q163.14-26.24 161.60-24.93L161.60-24.93L161.60-24.93Q160.06-23.62 160.06-21.18L160.06-21.18L160.06-21.18Q160.06-19.71 161.89-18.85L161.89-18.85L161.89-18.85Q163.71-17.98 166.34-17.44L166.34-17.44L166.34-17.44Q168.96-16.90 171.62-16.13L171.62-16.13L171.62-16.13Q174.27-15.36 176.10-13.57L176.10-13.57L176.10-13.57Q177.92-11.78 177.92-8.96L177.92-8.96L177.92-8.96Q177.92-4.93 174.88-2.40L174.88-2.40L174.88-2.40Q171.84 0.13 167.71 0.13L167.71 0.13L167.71 0.13Q163.58 0.13 160.03-1.18L160.03-1.18L160.03-1.18Q156.48-2.50 154.24-4.61L154.24-4.61L154.24-4.61Q155.01-5.50 157.18-8.51ZM213.57-16.32L213.57-20.86L225.15-20.54L225.15-20.54Q225.34-18.24 225.34-15.84L225.34-15.84L225.34-15.84Q225.34-13.44 224.74-10.69L224.74-10.69L224.74-10.69Q224.13-7.94 222.85-5.34L222.85-5.34L222.85-5.34Q221.57-2.75 219.23-1.15L219.23-1.15L219.23-1.15Q216.90 0.45 213.12 0.45L213.12 0.45L213.12 0.45Q209.34 0.45 206.08-1.18L206.08-1.18L206.08-1.18Q202.82-2.82 201.02-5.82L201.02-5.82L201.02-5.82Q197.50-11.58 197.50-20.61L197.50-20.61L197.50-20.61Q197.50-29.12 201.66-35.20L201.66-35.20L201.66-35.20Q203.71-38.14 207.04-39.90L207.04-39.90L207.04-39.90Q210.37-41.66 214.11-41.66L214.11-41.66L214.11-41.66Q217.86-41.66 220.13-40.42L220.13-40.42L220.13-40.42Q222.40-39.17 224.51-36.29L224.51-36.29L219.97-33.15L219.97-33.15Q217.22-36.54 213.82-36.54L213.82-36.54L213.82-36.54Q208.70-36.54 205.86-31.71L205.86-31.71L205.86-31.71Q203.01-26.88 203.01-20.22L203.01-20.22L203.01-20.22Q203.01-15.42 205.18-10.30L205.18-10.30L205.18-10.30Q206.27-7.74 208.32-6.08L208.32-6.08L208.32-6.08Q210.37-4.42 213.22-4.42L213.22-4.42L213.22-4.42Q216.06-4.42 218.11-7.52L218.11-7.52L218.11-7.52Q220.16-10.62 220.16-15.36L220.16-15.36L220.16-15.36Q220.16-15.81 220.16-16.26L220.16-16.26L213.57-16.32ZM238.66 0.51L238.66 0.51Q234.50 0.51 231.84-1.95L231.84-1.95L231.84-1.95Q229.18-4.42 229.18-8.58L229.18-8.58L229.18-8.58Q229.18-12.74 232.19-15.36L232.19-15.36L232.19-15.36Q235.20-17.98 239.30-17.98L239.30-17.98L239.30-17.98Q243.39-17.98 246.27-15.36L246.27-15.36L246.27-17.79L246.27-17.79Q246.27-21.76 244.70-23.97L244.70-23.97L244.70-23.97Q243.14-26.18 240.83-26.18L240.83-26.18L240.83-26.18Q238.53-26.18 236.83-25.12L236.83-25.12L236.83-25.12Q235.14-24.06 233.28-21.89L233.28-21.89L230.40-25.15L230.40-25.15Q234.75-30.78 241.34-30.78L241.34-30.78L241.34-30.78Q251.71-30.78 251.71-19.07L251.71-19.07L251.71-19.07Q251.71-7.36 251.78 0.06L251.78 0.06L247.23 0.06L247.04-2.75L246.85-2.88L246.85-2.88Q245.95-1.60 243.55-0.54L243.55-0.54L243.55-0.54Q241.15 0.51 238.66 0.51L238.66 0.51ZM246.34-8.96L246.34-8.96L246.34-8.96Q246.27-11.26 244.42-12.54L244.42-12.54L244.42-12.54Q242.56-13.82 239.94-13.82L239.94-13.82L239.94-13.82Q237.31-13.82 235.84-12.35L235.84-12.35L235.84-12.35Q234.37-10.88 234.37-8.83L234.37-8.83L234.37-8.83Q234.37-6.78 235.87-5.28L235.87-5.28L235.87-5.28Q237.38-3.78 240-3.78L240-3.78L240-3.78Q242.62-3.78 244.45-5.09L244.45-5.09L244.45-5.09Q246.27-6.40 246.34-8.96ZM258.62-42.05L254.21-41.41L254.02-46.14L264.77-46.66L264.77-46.66Q264.19-21.89 264.19-17.66L264.19-17.66L264.06-0.06L258.94 0.32L258.94-17.79L258.94-17.79Q258.94-26.88 258.62-42.05L258.62-42.05ZM273.66-42.05L269.25-41.41L269.06-46.14L279.81-46.66L279.81-46.66Q279.23-21.89 279.23-17.66L279.23-17.66L279.10-0.06L273.98 0.32L273.98-17.79L273.98-17.79Q273.98-26.88 273.66-42.05L273.66-42.05ZM310.21-13.06L310.21-13.06L291.33-12.93L291.33-12.93Q291.33-8.83 293.63-6.37L293.63-6.37L293.63-6.37Q295.94-3.90 298.82-3.90L298.82-3.90L298.82-3.90Q301.70-3.90 303.78-4.83L303.78-4.83L303.78-4.83Q305.86-5.76 306.75-6.66L306.75-6.66L307.58-7.62L310.21-4.16L310.21-4.16Q306.50 0.32 298.69 0.32L298.69 0.32L298.69 0.32Q292.42 0.32 289.15-3.46L289.15-3.46L289.15-3.46Q285.89-7.23 285.89-13.86L285.89-13.86L285.89-13.86Q285.89-20.48 290.02-25.50L290.02-25.50L290.02-25.50Q294.14-30.53 300.61-30.53L300.61-30.53L300.61-30.53Q305.79-30.53 308.19-26.98L308.19-26.98L308.19-26.98Q310.59-23.42 310.59-17.73L310.59-17.73L310.59-17.73Q310.59-15.36 310.21-13.06ZM305.60-16.70L305.60-16.70Q305.60-21.31 304.22-23.68L304.22-23.68L304.22-23.68Q302.85-26.05 299.36-26.05L299.36-26.05L299.36-26.05Q295.87-26.05 293.60-23.01L293.60-23.01L293.60-23.01Q291.33-19.97 291.26-16.58L291.26-16.58L305.60-16.70ZM316.80-16.90L316.61-30.02L321.22-30.53L321.79-24.45L322.18-24.51L322.18-24.51Q325.57-30.91 331.07-30.91L331.07-30.91L331.07-30.91Q333.63-30.91 336.32-29.31L336.32-29.31L334.08-24.38L334.08-24.38Q331.78-25.86 329.63-25.86L329.63-25.86L329.63-25.86Q327.49-25.86 325.82-23.97L325.82-23.97L325.82-23.97Q324.16-22.08 323.23-18.85L323.23-18.85L323.23-18.85Q322.30-15.62 322.30-11.26L322.30-11.26L322.30-11.26Q322.30-6.91 322.62 0L322.62 0L316.67 0.26L316.67 0.26Q316.80-10.11 316.80-16.90L316.80-16.90ZM353.28-5.76L360.58-30.72L366.66-29.57L366.66-29.57Q357.50-4.74 355.94 0.32L355.94 0.32L355.94 0.32Q354.37 5.38 353.63 7.17L353.63 7.17L353.63 7.17Q352.90 8.96 351.55 10.88L351.55 10.88L351.55 10.88Q348.93 14.59 343.58 14.59L343.58 14.59L343.58 14.59Q338.24 14.59 334.46 12.61L334.46 12.61L336.06 7.62L336.06 7.62Q339.97 9.86 344.13 9.86L344.13 9.86L344.13 9.86Q346.94 9.86 348.67 7.78L348.67 7.78L348.67 7.78Q350.40 5.70 350.40 3.17L350.40 3.17L350.40 3.17Q350.40 0.64 348.29-4.86L348.29-4.86L338.18-29.50L344.45-30.98L353.28-5.76Z" fill="url(#editing-gradient-gradient)"></path></g></g><style>text {
  font-size: 68px;
  font-family: Arial Black;
  dominant-baseline: central;
  text-anchor: middle;
}</style></svg>